<?xml version="1.0" encoding="UTF-8"?>
<svg width="108px" height="30px" viewBox="0 0 108 30" version="1.1" xmlns="http://www.w3.org/2000/svg" xmlns:xlink="http://www.w3.org/1999/xlink">
    <title>编组</title>
    <defs>
        <polygon id="path-1" points="0 30 107.999703 30 107.999703 0 0 0"></polygon>
    </defs>
    <g id="替换产品" stroke="none" stroke-width="1" fill="none" fill-rule="evenodd">
        <g id="官网-首页-能源" transform="translate(-360.000000, -18.000000)">
            <g id="编组" transform="translate(360.000000, 18.000000)">
                <polygon id="Fill-1" fill="#0079BF" points="0.000296566013 4.13925 6.29268594 4.13925 6.29268594 0 0.000296566013 0"></polygon>
                <polygon id="Fill-2" fill="#0079BF" points="0.624864589 21.665775 13.0109441 29.999775 13.0109441 21.665775"></polygon>
                <polygon id="Fill-3" fill="#0079BF" points="13.8095222 21.665775 13.8095222 29.999775 26.1963432 21.665775"></polygon>
                <polygon id="Fill-4" fill="#0079BF" points="20.5293374 4.13925 26.8209853 4.13925 26.8209853 0 20.5293374 0"></polygon>
                <polygon id="Fill-5" fill="#0079BF" points="7.09637984 4.13925 19.7249021 4.13925 19.7249021 0 7.09637984 0"></polygon>
                <polygon id="Fill-6" fill="#0079BF" points="0.000296566013 4.93185 0.000296566013 12.4911 6.29268594 12.4911 6.29268594 8.63685 7.09637984 8.63685 7.09637984 12.4911 13.0106475 12.4911 13.0106475 4.93185"></polygon>
                <polygon id="Fill-7" fill="#0079BF" points="7.09608327 13.283625 7.09608327 17.137875 6.29238937 17.137875 6.29238937 13.283625 0 13.283625 0 20.842875 13.0110924 20.842875 13.0110924 13.283625"></polygon>
                <polygon id="Fill-8" fill="#0079BF" points="13.8096705 4.931625 13.8096705 12.490875 19.7231968 12.490875 19.7231968 8.636625 20.5268907 8.636625 20.5268907 12.490875 26.8207629 12.490875 26.8207629 4.931625"></polygon>
                <polygon id="Fill-9" fill="#0079BF" points="13.8096705 20.8428 13.8096705 13.28355 19.7231968 13.28355 19.7231968 17.13855 20.5268907 17.13855 20.5268907 13.28355 26.8207629 13.28355 26.8207629 20.8428"></polygon>
                <g transform="translate(0.000297, 0.000000)">
                    <path d="M38.6949695,8.053575 C38.4955289,7.446825 38.245672,6.840825 37.9453989,6.234825 C39.3437077,5.779575 40.5937334,5.350575 41.6917691,4.946325 L41.6917691,0.398325 L43.7150907,0.398325 L43.7150907,4.036575 C45.2624239,3.330825 46.8357065,2.395575 48.4349388,1.232325 L49.6338069,2.672325 C47.8358754,3.936825 45.8622286,5.073825 43.7150907,6.083325 L43.7150907,6.992325 C43.6654159,7.902075 44.1154548,8.332575 45.0637246,8.280825 L46.6370073,8.280825 C47.4355113,8.332575 47.9359665,7.977825 48.1354071,7.220325 C48.2362395,6.765075 48.3111225,6.108825 48.3600559,5.249325 C49.0599516,5.502825 49.7086898,5.703825 50.3084946,5.855325 C50.1579873,6.765075 50.0082215,7.548825 49.8584556,8.205075 C49.6085988,9.469575 48.6855371,10.075575 47.0863048,10.023825 L44.314154,10.023825 C42.5162226,10.125825 41.6428357,9.266325 41.6917691,7.446825 L41.6917691,6.916575 C40.793174,7.272075 39.7930052,7.650825 38.6949695,8.053575 L38.6949695,8.053575 Z M32.4759802,14.116575 L32.4759802,12.222075 L40.3431351,12.222075 L40.3431351,10.251825 L42.3664567,10.251825 L42.3664567,12.222075 L50.3084946,12.222075 L50.3084946,14.116575 L42.3664567,14.116575 L42.3664567,18.285825 L40.3431351,18.285825 L40.3431351,14.116575 L32.4759802,14.116575 Z M33.075785,7.522575 C32.9260191,6.866325 32.6754209,6.159075 32.3262144,5.400825 C34.3235865,4.088325 36.0229097,2.319075 37.4212185,0.095325 L39.3689158,0.853575 C38.7201776,1.814325 38.0462313,2.724075 37.3463356,3.582075 L37.3463356,10.479075 L35.3230139,10.479075 L35.3230139,5.628075 C34.6742758,6.286575 33.9254466,6.916575 33.075785,7.522575 L33.075785,7.522575 Z" id="Fill-10" fill="#333333"></path>
                    <path d="M60.4229526,2.7483 L60.4229526,1.0053 L69.5638585,1.0053 L69.5638585,2.7483 L65.5179567,2.7483 L65.0686592,4.71855 L68.9647951,4.71855 L68.9647951,13.8138 L67.3158881,13.8138 L67.3158881,6.38655 L62.4462742,6.38655 L62.4462742,13.88955 L60.7973672,13.88955 L60.7973672,4.71855 L63.2699863,4.71855 L63.6451423,2.7483 L60.4229526,2.7483 Z M68.6645221,18.13455 C68.2152245,17.72955 67.4893792,17.0733 66.492176,16.16355 C65.7915388,15.60855 65.2673584,15.17805 64.9181519,14.87505 C64.3190886,16.18755 62.9445051,17.3508 60.7973672,18.36105 C60.6476013,18.20955 60.3977445,17.85555 60.048538,17.2998 C59.8987721,17.04705 59.7979397,16.8693 59.7490063,16.76955 C62.8466383,15.8103 64.2679309,13.8138 64.0195569,10.7823 C64.0195569,10.3788 64.0432822,9.7728 64.0944398,8.96355 L64.0944398,7.44705 L65.7426054,7.44705 C65.7426054,9.11505 65.7173973,10.2513 65.6677225,10.85805 C65.6677225,11.71755 65.5928396,12.5013 65.4430737,13.2078 C66.2415777,13.86555 67.390771,14.7993 68.8891708,16.01205 C69.2880521,16.31505 69.5875838,16.54305 69.7885072,16.6938 L68.6645221,18.13455 Z M57.9503334,17.6793 L59.5236161,17.6793 L59.5236161,0.4743 L57.9503334,0.4743 L57.9503334,17.6793 Z M55.2530655,16.61805 L56.7514653,16.61805 L56.7514653,1.23255 L55.2530655,1.23255 L55.2530655,16.61805 Z M52.6306806,18.20955 L52.1813831,17.75505 C51.7313441,17.2998 51.4318125,16.9968 51.2820466,16.8453 C51.781019,15.8358 52.1065002,14.69955 52.256266,13.43505 C52.4060318,12.27405 52.4809147,10.2018 52.4809147,7.2198 L52.4809147,0.55005 L54.0541974,0.55005 L54.0541974,7.37205 C54.0541974,10.6068 53.9541064,12.88005 53.7546658,14.19255 C53.6048999,15.60855 53.2304853,16.9458 52.6306806,18.20955 L52.6306806,18.20955 Z" id="Fill-12" fill="#333333"></path>
                    <mask id="mask-2" fill="white">
                        <use xlink:href="#path-1"></use>
                    </mask>
                    <g id="Clip-15"></g>
                    <path d="M78.7797956,15.70875 L85.822497,15.70875 L85.822497,13.20825 L78.7797956,13.20825 L78.7797956,15.70875 Z M76.9062398,18.21 L76.9062398,11.54025 L87.6953114,11.54025 L87.6953114,18.21 L85.822497,18.21 L85.822497,17.2245 L78.7797956,17.2245 L78.7797956,18.21 L76.9062398,18.21 Z M76.8313569,10.10025 L87.7709357,10.10025 L87.7709357,8.50875 L76.8313569,8.50875 L76.8313569,10.10025 Z M76.8313569,7.06875 L87.7709357,7.06875 L87.7709357,5.4765 L76.8313569,5.4765 L76.8313569,7.06875 Z M76.0069034,4.11225 L76.0069034,2.2935 L81.4021806,2.2935 L80.7274929,0.399 L82.8998389,0.171 L83.6494095,2.2935 L88.7444136,2.2935 L88.7444136,4.11225 L76.0069034,4.11225 Z M72.7105722,18.21 L72.7105722,8.5845 C72.210117,9.4935 71.6614699,10.35375 71.0616651,11.1615 C70.9118993,10.35375 70.7621335,9.4935 70.6123676,8.5845 C72.0603512,6.26025 73.2347526,3.456 74.134089,0.171 L76.0825277,0.702 C75.6821636,2.118 75.1831913,3.50625 74.5833865,4.8705 L74.5833865,18.21 L72.7105722,18.21 Z" id="Fill-14" fill="#333333" mask="url(#mask-2)"></path>
                    <path d="M95.337521,11.691525 C96.6349973,12.146025 98.0355303,12.677025 99.5331886,13.283775 C100.781732,12.374025 101.730001,11.186775 102.380964,9.721275 L96.6861549,9.721275 C96.2368574,10.429275 95.7868185,11.085525 95.337521,11.691525 L95.337521,11.691525 Z M90.7674387,6.234525 L90.7674387,2.444775 L98.2594376,2.444775 C98.2090214,2.293275 98.1096718,2.066025 97.9599059,1.763025 C97.7093076,1.106775 97.5106084,0.651525 97.3608426,0.398775 L99.608813,0.095775 C99.8075122,0.500025 100.156719,1.258275 100.657915,2.369025 L100.282759,2.444775 L107.175695,2.444775 L107.175695,6.234525 L105.078232,6.234525 L105.078232,4.264275 L92.7900189,4.264275 L92.7900189,6.234525 L90.7674387,6.234525 Z M89.8681023,9.721275 L89.8681023,7.750275 L95.4872868,7.750275 C96.0359339,6.791025 96.5601143,5.780025 97.0605695,4.718775 L99.3085399,5.325525 C99.1076164,5.679525 98.8080847,6.210525 98.4099448,6.917025 C98.1593466,7.271775 97.9836312,7.549275 97.8857644,7.750275 L108.000148,7.750275 L108.000148,9.721275 L104.628193,9.721275 C103.977972,11.540025 103.003752,13.005525 101.706276,14.117025 C102.205248,14.320275 102.928869,14.623275 103.879364,15.026775 C105.377763,15.632775 106.450591,16.037025 107.100812,16.239525 L106.127334,18.209775 C103.57909,17.047275 101.481627,16.137525 99.8327203,15.481275 C97.7352572,16.642275 94.8882234,17.577525 91.2916191,18.285525 C91.1915281,18.032775 91.0417623,17.679525 90.8423216,17.224275 C90.6413981,16.769775 90.4916323,16.441275 90.3930241,16.239525 C93.2889912,15.936525 95.6615193,15.355275 97.5106084,14.495775 C96.8107126,14.192775 95.8112852,13.763775 94.5138089,13.207275 C93.6144724,12.854025 92.9405262,12.577275 92.4904872,12.374025 C92.5890954,12.273525 92.7158774,12.096525 92.8649018,11.843025 C93.2637831,11.338275 93.7642383,10.630275 94.364043,9.721275 L89.8681023,9.721275 Z" id="Fill-16" fill="#333333" mask="url(#mask-2)"></path>
                    <polygon id="Fill-17" fill="#333333" mask="url(#mask-2)" points="40.1441393 28.520775 39.0542592 28.520775 39.0542592 25.385775 35.3419942 25.385775 35.3419942 28.520775 34.2862192 28.520775 34.2862192 21.458775 35.3419942 21.458775 35.3419942 24.455775 39.0542592 24.455775 39.0542592 21.458775 40.1441393 21.458775"></polygon>
                    <path d="M46.0696765,28.48635 L45.0480066,28.48635 L45.0480066,27.62535 C44.6839718,28.2681 44.128652,28.60185 43.3798228,28.62435 C42.1297971,28.62435 41.506267,27.9576 41.506267,26.62635 L41.506267,23.42235 L42.5279369,23.42235 L42.5279369,26.52285 C42.5279369,27.41835 42.924594,27.86685 43.7201323,27.86685 C44.5371717,27.79785 44.9797964,27.3036 45.0480066,26.38485 L45.0480066,23.42235 L46.0696765,23.42235 L46.0696765,28.48635 Z" id="Fill-18" fill="#333333" mask="url(#mask-2)"></path>
                    <path d="M50.9398836,26.350575 L50.9398836,25.695825 C50.6670429,25.949325 50.1673291,26.121075 49.4414838,26.212575 C48.5317676,26.328075 48.0891428,26.648325 48.1128681,27.177825 C48.0891428,27.681825 48.4420564,27.923325 49.1686431,27.900825 C50.2592646,27.832575 50.8479481,27.315075 50.9398836,26.350575 M52.1661841,28.486575 L51.1786192,28.486575 C51.0421989,28.302825 50.9502634,28.016325 50.9057785,27.624825 C50.4972588,28.268325 49.7699307,28.602075 48.7260183,28.623825 C47.6806231,28.578075 47.1356831,28.107825 47.0919396,27.211575 C47.0919396,26.293575 47.7147282,25.752825 48.964754,25.592325 C50.054634,25.431825 50.6900267,25.248075 50.8716734,25.041825 C50.9161583,24.330075 50.5076386,23.995575 49.645373,24.042075 C48.850576,24.042075 48.3857088,24.352575 48.2492884,24.972075 L47.2617236,24.800325 C47.5108391,23.766825 48.305636,23.262075 49.645373,23.284575 C51.2127243,23.238075 51.9615535,23.916825 51.8933433,25.317075 L51.8933433,27.418575 C51.8933433,27.832575 51.983796,28.188075 52.1661841,28.486575" id="Fill-19" fill="#333333" mask="url(#mask-2)"></path>
                    <path d="M52.9150874,26.385 L54.0049675,26.14425 C54.1636303,27.2685 54.8101442,27.8325 55.945992,27.8325 C56.9439367,27.80925 57.4666343,27.4065 57.5133434,26.62575 C57.5808122,26.097 57.1144621,25.69575 56.1165175,25.4205 C56.024582,25.37325 55.8318141,25.317 55.5382138,25.248 C55.4462783,25.2255 55.3773267,25.2135 55.3328418,25.2135 C53.8107167,24.89175 53.0959927,24.237 53.1879281,23.25 C53.2776393,22.05675 54.1072828,21.4245 55.6738927,21.3555 C57.2627451,21.333 58.1939624,21.975 58.4668031,23.2845 L57.4110281,23.52525 C57.2508825,22.67625 56.6955626,22.251 55.7421029,22.251 C54.8568534,22.2735 54.3801235,22.60725 54.3111719,23.25 C54.2437031,23.77875 54.7886432,24.1575 55.945992,24.387 C56.399738,24.50175 56.7400475,24.59325 56.9676619,24.66225 C58.1257522,25.029 58.6929347,25.674 58.6706923,26.59125 C58.6247245,27.90075 57.7276124,28.578 55.9800971,28.62375 C54.2310991,28.671 53.2094292,27.92325 52.9150874,26.385" id="Fill-20" fill="#333333" mask="url(#mask-2)"></path>
                    <path d="M64.358087,28.48635 L63.3364171,28.48635 L63.3364171,25.48935 C63.3364171,24.5706 62.9501398,24.1116 62.1790682,24.1116 C61.3153197,24.1581 60.8600909,24.67485 60.8163474,25.6611 L60.8163474,28.48635 L59.7946775,28.48635 L59.7946775,21.21735 L60.8163474,21.21735 L60.8163474,24.31785 C61.2248671,23.65185 61.8039122,23.30685 62.5527414,23.28435 C63.7797833,23.26185 64.3803294,23.9391 64.358087,25.31685 L64.358087,28.48635 Z" id="Fill-21" fill="#333333" mask="url(#mask-2)"></path>
                    <path d="M70.1475004,28.48635 L69.1258305,28.48635 L69.1258305,27.62535 C68.7632785,28.2681 68.2064758,28.60185 67.4576467,28.62435 C66.2076209,28.62435 65.5840909,27.9576 65.5840909,26.62635 L65.5840909,23.42235 L66.6065022,23.42235 L66.6065022,26.52285 C66.6065022,27.41835 67.0031593,27.86685 67.7979562,27.86685 C68.6157369,27.79785 69.0576203,27.3036 69.1258305,26.38485 L69.1258305,23.42235 L70.1475004,23.42235 L70.1475004,28.48635 Z" id="Fill-22" fill="#333333" mask="url(#mask-2)"></path>
                    <path d="M76.0057171,28.520775 L74.9840472,28.520775 L74.9840472,25.489275 C74.9840472,24.570525 74.59777,24.123525 73.8259569,24.146025 C73.0304186,24.192525 72.5781554,24.662025 72.4639775,25.558275 L72.4639775,28.520775 L71.4423076,28.520775 L71.4423076,23.422275 L72.4639775,23.422275 L72.4639775,24.317775 C72.8717558,23.675775 73.4515423,23.330775 74.2003715,23.285025 C75.426672,23.261775 76.0272182,23.951025 76.0057171,25.351275 L76.0057171,28.520775 Z" id="Fill-23" fill="#333333" mask="url(#mask-2)"></path>
                    <polygon id="Fill-24" fill="#333333" mask="url(#mask-2)" points="83.2258391 24.97215 85.9164343 28.5204 84.5537135 28.5204 82.5103736 25.5579 80.4329287 28.5204 79.1384181 28.5204 81.8290132 24.93765 79.3771537 21.4584 80.7057694 21.4584 82.5444787 24.38715 84.3839294 21.4584 85.6776986 21.4584"></polygon>
                    <path d="M86.5972757,28.4865 L87.6530507,28.4865 L87.6530507,23.4225 L86.5972757,23.4225 L86.5972757,28.4865 Z M86.5972757,22.458 L87.6530507,22.458 L87.6530507,21.39 L86.5972757,21.39 L86.5972757,22.458 Z" id="Fill-25" fill="#333333" mask="url(#mask-2)"></path>
                    <path d="M93.4767917,28.520775 L92.4551217,28.520775 L92.4551217,25.489275 C92.4551217,24.570525 92.0688445,24.123525 91.2970315,24.146025 C90.5014931,24.192525 90.04923,24.662025 89.935052,25.558275 L89.935052,28.520775 L88.9133821,28.520775 L88.9133821,23.422275 L89.935052,23.422275 L89.935052,24.317775 C90.3428303,23.675775 90.9226169,23.330775 91.671446,23.285025 C92.8977465,23.261775 93.4982927,23.951025 93.4767917,25.351275 L93.4767917,28.520775 Z" id="Fill-26" fill="#333333" mask="url(#mask-2)"></path>
                    <path d="M97.5632489,22.388925 L97.5291438,22.388925 L97.3252547,23.008425 C97.3022708,23.055675 96.9508401,23.972925 96.2694797,25.764675 L98.8236544,25.764675 C98.142294,23.972925 97.7901219,23.055675 97.767138,23.008425 C97.767138,22.986675 97.7560168,22.939425 97.7330329,22.871175 C97.6195964,22.595175 97.5632489,22.435425 97.5632489,22.388925 L97.5632489,22.388925 Z M98.1763991,21.458925 L100.96931,28.520925 L99.8112193,28.520925 L99.0957538,26.625675 L95.9973803,26.625675 L95.2819148,28.520925 L94.1230831,28.520925 L96.916735,21.458925 L98.1763991,21.458925 Z" id="Fill-27" fill="#333333" mask="url(#mask-2)"></path>
                    <path d="M106.179974,28.520775 L105.157563,28.520775 L105.157563,25.489275 C105.157563,24.570525 104.772027,24.123525 104.000214,24.146025 C103.204676,24.192525 102.751671,24.662025 102.638235,25.558275 L102.638235,28.520775 L101.616565,28.520775 L101.616565,23.422275 L102.638235,23.422275 L102.638235,24.317775 C103.046013,23.675775 103.6258,23.330775 104.374629,23.285025 C105.600929,23.261775 106.201475,23.951025 106.179974,25.351275 L106.179974,28.520775 Z" id="Fill-28" fill="#333333" mask="url(#mask-2)"></path>
                </g>
            </g>
        </g>
    </g>
</svg>